<?xml version="1.0" encoding="UTF-8" standalone="no"?>
<!DOCTYPE svg PUBLIC "-//W3C//DTD SVG 1.1//EN" "http://www.w3.org/Graphics/SVG/1.1/DTD/svg11.dtd">
<svg height="100%" stroke-miterlimit="10" style="fill-rule:nonzero;clip-rule:evenodd;stroke-linecap:round;stroke-linejoin:round;" version="1.1" viewBox="0 0 60 60" width="100%" xml:space="preserve" xmlns="http://www.w3.org/2000/svg" xmlns:xlink="http://www.w3.org/1999/xlink">
<defs/>
<clipPath id="ArtboardFrame">
<rect height="60" width="60" x="0" y="0"/>
</clipPath>
<g clip-path="url(#ArtboardFrame)" id="Layer-1">
<path d="M2.5 14.774L57.5 14.774L57.5 45.226L2.5 45.226L2.5 14.774Z" fill="#3395ff" fill-rule="nonzero" opacity="1" stroke="#007aff" stroke-linecap="butt" stroke-linejoin="round" stroke-width="5"/>
<g fill="#5afeb7" opacity="1" stroke="none">
<path d="M17.9019 31.7354L21.3911 32.79C21.1567 33.7686 20.7876 34.5859 20.2837 35.2422C19.7798 35.8984 19.1543 36.3936 18.4072 36.7275C17.6602 37.0615 16.7095 37.2285 15.5552 37.2285C14.1548 37.2285 13.0107 37.0249 12.123 36.6177C11.2354 36.2104 10.4692 35.4941 9.82471 34.4688C9.18018 33.4434 8.85791 32.1309 8.85791 30.5312C8.85791 28.3984 9.4248 26.7593 10.5586 25.6138C11.6924 24.4683 13.2964 23.8955 15.3706 23.8955C16.9937 23.8955 18.2695 24.2236 19.1982 24.8799C20.127 25.5361 20.8169 26.5439 21.2681 27.9033L17.7524 28.6855C17.6294 28.293 17.5005 28.0059 17.3657 27.8242C17.1431 27.5195 16.8706 27.2852 16.5483 27.1211C16.2261 26.957 15.8657 26.875 15.4673 26.875C14.5649 26.875 13.8735 27.2383 13.3931 27.9648C13.0298 28.5039 12.8481 29.3506 12.8481 30.5049C12.8481 31.9346 13.0649 32.9146 13.4985 33.4448C13.9321 33.9751 14.5415 34.2402 15.3267 34.2402C16.0884 34.2402 16.6641 34.0264 17.0537 33.5986C17.4434 33.1709 17.7261 32.5498 17.9019 31.7354Z"/>
<path d="M23.2808 24.1152L28.519 24.1152L30.5405 31.9551L32.5532 24.1152L37.7739 24.1152L37.7739 37L34.522 37L34.522 27.1738L31.9995 37L29.0552 37L26.5415 27.1738L26.5415 37L23.2808 37L23.2808 24.1152Z"/>
<path d="M39.6196 32.7373L43.4077 32.5C43.4897 33.1152 43.6567 33.584 43.9087 33.9062C44.3188 34.4277 44.9048 34.6885 45.6665 34.6885C46.2349 34.6885 46.6729 34.5552 46.9805 34.2886C47.2881 34.022 47.4419 33.7129 47.4419 33.3613C47.4419 33.0273 47.2954 32.7285 47.0024 32.4648C46.7095 32.2012 46.0298 31.9521 44.9634 31.7178C43.2173 31.3252 41.9722 30.8037 41.228 30.1533C40.478 29.5029 40.103 28.6738 40.103 27.666C40.103 27.0039 40.2949 26.3784 40.6787 25.7896C41.0625 25.2007 41.6396 24.7378 42.4102 24.4009C43.1807 24.064 44.2368 23.8955 45.5786 23.8955C47.2251 23.8955 48.4805 24.2017 49.3447 24.814C50.209 25.4263 50.7231 26.4004 50.8872 27.7363L47.1343 27.9561C47.0347 27.376 46.8252 26.9541 46.5059 26.6904C46.1865 26.4268 45.7456 26.2949 45.1831 26.2949C44.7202 26.2949 44.3716 26.3931 44.1372 26.5894C43.9028 26.7856 43.7856 27.0244 43.7856 27.3057C43.7856 27.5107 43.8823 27.6953 44.0757 27.8594C44.2632 28.0293 44.7085 28.1875 45.4116 28.334C47.1519 28.709 48.3984 29.0884 49.1514 29.4722C49.9043 29.856 50.4521 30.332 50.7949 30.9004C51.1377 31.4688 51.3091 32.1045 51.3091 32.8076C51.3091 33.6338 51.0806 34.3955 50.6235 35.0928C50.1665 35.79 49.5278 36.3188 48.7075 36.6792C47.8872 37.0396 46.853 37.2197 45.605 37.2197C43.4136 37.2197 41.896 36.7979 41.0522 35.9541C40.2085 35.1104 39.731 34.0381 39.6196 32.7373Z"/>
</g>
</g>
</svg>
